<svg width="65" height="65" viewBox="0 0 65 65" fill="none" xmlns="http://www.w3.org/2000/svg">
<path d="M19.8334 32.0869C19.8334 30.9936 20.74 30.0869 21.8334 30.0869H29.8334V20.0869C29.8334 18.6202 28.6334 17.4202 27.1667 17.4202H21.22C12.82 17.4202 5.51337 24.3002 5.83337 32.6736C5.99337 36.4869 7.59337 39.9269 10.1267 42.4602C12.7934 45.1002 16.4467 46.7536 20.5 46.7536H27.1667C28.6334 46.7536 29.8334 45.5536 29.8334 44.0869V34.0869H21.8334C20.74 34.0869 19.8334 33.1802 19.8334 32.0869Z" fill="#292D32"/>
<path d="M54.8737 21.7136C52.207 19.0736 48.5537 17.4202 44.5003 17.4202H37.8337C36.367 17.4202 35.167 18.6202 35.167 20.0869V30.0869H43.167C44.2603 30.0869 45.167 30.9936 45.167 32.0869C45.167 33.1802 44.2603 34.0869 43.167 34.0869H35.167V44.0869C35.167 45.5536 36.367 46.7536 37.8337 46.7536H43.7803C52.1803 46.7536 59.487 39.8736 59.1403 31.5002C59.007 27.6869 57.3803 24.2469 54.8737 21.7136Z" fill="#292D32"/>
<path d="M35.1663 30.0869H29.833V34.0869H35.1663V30.0869Z" fill="#292D32"/>
</svg>
