<svg width="89" height="42" viewBox="0 0 89 42" fill="none" xmlns="http://www.w3.org/2000/svg">
<path d="M3.53711 6.86031C9.9213 13.0285 17.553 13.4957 24.1918 7.14055" stroke="url(#paint0_linear_316_1175)" stroke-width="3.36449" stroke-linecap="round" stroke-linejoin="round"/>
<path d="M8.04395 2.84154C11.0483 6.20605 16.6814 6.20606 19.8735 2.84157" stroke="url(#paint1_linear_316_1175)" stroke-width="3.36449" stroke-linecap="round" stroke-linejoin="round"/>
<path d="M18.5686 1.88629C19.0398 1.01232 20.0835 0.712877 20.8998 1.21746C21.716 1.72205 21.9957 2.8396 21.5244 3.71357L4.09298 36.0413C3.62172 36.9153 2.57801 37.2147 1.76177 36.7101C0.945533 36.2056 0.66587 35.088 1.13712 34.214L18.5686 1.88629Z" fill="url(#paint2_linear_316_1175)"/>
<path d="M22.8473 6.20882C23.331 5.31162 24.4025 5.00422 25.2404 5.52222C26.0783 6.04021 26.3654 7.18745 25.8817 8.08464L8.75535 39.8465C8.17482 40.9231 6.88908 41.292 5.88358 40.6704C5.21324 40.256 4.98356 39.3382 5.37058 38.6205L22.8473 6.20882Z" fill="url(#paint3_linear_316_1175)"/>
<path d="M2.78516 35.1081C9.16935 28.9399 16.6802 28.9399 23.319 35.295" stroke="#78C257" stroke-width="3.73832" stroke-linecap="round" stroke-linejoin="round"/>
<path d="M6.91602 39.2921C9.92034 35.9276 15.7412 36.1145 18.9333 39.479" stroke="#78C257" stroke-width="3.73832" stroke-linecap="round" stroke-linejoin="round"/>
<path d="M32.2272 24.3723L39.5895 9.53173H33.0581V6.98101H43.7827L36.4204 21.8216H43.4156V24.3723H32.2272ZM59.8184 24.7201C58.5559 24.7201 57.3707 24.4883 56.2628 24.0245C55.1549 23.5478 54.1823 22.8973 53.3449 22.0728C52.5204 21.2483 51.8699 20.2886 51.3932 19.1936C50.9166 18.0986 50.6783 16.9263 50.6783 15.6767C50.6783 14.4271 50.9166 13.2548 51.3932 12.1598C51.8699 11.0647 52.5204 10.105 53.3449 9.28053C54.1823 8.45605 55.1549 7.81193 56.2628 7.34816C57.3707 6.87151 58.5559 6.63318 59.8184 6.63318C61.0937 6.63318 62.2789 6.87151 63.3739 7.34816C64.4818 7.81193 65.4544 8.45605 66.2918 9.28053C67.1291 10.105 67.7797 11.0647 68.2435 12.1598C68.7201 13.2548 68.9585 14.4271 68.9585 15.6767C68.9585 16.9263 68.7201 18.0986 68.2435 19.1936C67.7797 20.2886 67.1291 21.2483 66.2918 22.0728C65.4544 22.8973 64.4818 23.5478 63.3739 24.0245C62.2789 24.4883 61.0937 24.7201 59.8184 24.7201ZM59.8184 21.9955C60.9778 21.9955 62.0213 21.7121 62.9488 21.1453C63.8892 20.5784 64.6299 19.8184 65.171 18.8651C65.725 17.8989 66.0019 16.8361 66.0019 15.6767C66.0019 14.5044 65.725 13.4416 65.171 12.4883C64.6299 11.535 63.8892 10.7749 62.9488 10.2081C62.0213 9.64124 60.9778 9.35782 59.8184 9.35782C58.6589 9.35782 57.609 9.64124 56.6686 10.2081C55.7411 10.7749 55.0003 11.535 54.4464 12.4883C53.9053 13.4416 53.6348 14.5044 53.6348 15.6767C53.6348 16.8361 53.9053 17.8989 54.4464 18.8651C55.0003 19.8184 55.7411 20.5784 56.6686 21.1453C57.609 21.7121 58.6589 21.9955 59.8184 21.9955ZM77.7761 24.3723V6.98101H86.7036V9.47376H80.5587V12.6622H85.351V15.097H80.5587V21.8216H86.7036V24.3723H77.7761Z" fill="black"/>
<path d="M32.4653 34.5723V29.4057L34.8153 32.4834L37.1209 29.4057V34.5723H36.3209V32.7001C36.3209 32.5445 36.3227 32.3705 36.3264 32.1779C36.3301 31.9853 36.3449 31.7668 36.3709 31.5223C36.256 31.7186 36.1449 31.8908 36.0375 32.039C35.9301 32.1871 35.832 32.3223 35.7431 32.4445L34.7931 33.7612L33.8153 32.4445C33.7264 32.326 33.6264 32.189 33.5153 32.0334C33.4042 31.8779 33.2931 31.7038 33.182 31.5112C33.2079 31.7631 33.2227 31.9853 33.2264 32.1779C33.2301 32.3668 33.232 32.5408 33.232 32.7001V34.5723H32.4653ZM39.8448 34.6612C39.4856 34.6612 39.1652 34.5834 38.8837 34.4279C38.6022 34.2723 38.3819 34.0594 38.2226 33.789C38.067 33.5186 37.9893 33.2131 37.9893 32.8723C37.9893 32.5464 38.0652 32.2538 38.217 31.9945C38.3726 31.7353 38.58 31.5297 38.8393 31.3779C39.1022 31.226 39.3911 31.1501 39.7059 31.1501C40.0244 31.1501 40.3115 31.2242 40.567 31.3723C40.8263 31.5205 41.0319 31.7223 41.1837 31.9779C41.3356 32.2297 41.4115 32.5168 41.4115 32.839V33.1334H39.3059C39.2133 33.1334 39.1207 33.1297 39.0281 33.1223C38.9356 33.1112 38.843 33.0983 38.7504 33.0834C38.7948 33.339 38.917 33.552 39.117 33.7223C39.3207 33.8927 39.5689 33.9779 39.8615 33.9779C40.0726 33.9779 40.2652 33.9334 40.4393 33.8445C40.6133 33.752 40.7559 33.6334 40.867 33.489L41.0559 34.2668C40.893 34.3964 40.7078 34.4945 40.5004 34.5612C40.293 34.6279 40.0744 34.6612 39.8448 34.6612ZM38.7337 32.5834C38.9263 32.5464 39.117 32.5279 39.3059 32.5279H40.1504C40.243 32.5279 40.3319 32.5316 40.417 32.539C40.5059 32.5464 40.5911 32.5557 40.6726 32.5668C40.617 32.3408 40.5004 32.1575 40.3226 32.0168C40.1485 31.8723 39.9411 31.8001 39.7004 31.8001C39.467 31.8001 39.2615 31.8742 39.0837 32.0223C38.9059 32.1705 38.7893 32.3575 38.7337 32.5834ZM43.5465 34.639C43.2391 34.639 42.9595 34.5612 42.7077 34.4057C42.4558 34.2501 42.254 34.0408 42.1021 33.7779C41.954 33.5149 41.8799 33.2242 41.8799 32.9057C41.8799 32.5871 41.954 32.2964 42.1021 32.0334C42.254 31.7705 42.4558 31.5612 42.7077 31.4057C42.9595 31.2501 43.2391 31.1723 43.5465 31.1723C43.7428 31.1723 43.9262 31.2057 44.0965 31.2723C44.2706 31.3353 44.4262 31.4242 44.5632 31.539V29.239H45.3465V34.5723H44.6521V34.189C44.5151 34.3297 44.3503 34.4408 44.1577 34.5223C43.9688 34.6001 43.7651 34.639 43.5465 34.639ZM43.641 33.939C43.8262 33.939 43.9947 33.8927 44.1465 33.8001C44.3021 33.7075 44.4243 33.5834 44.5132 33.4279C44.6058 33.2723 44.6521 33.0983 44.6521 32.9057C44.6521 32.7168 44.6058 32.5445 44.5132 32.389C44.4243 32.2297 44.304 32.1038 44.1521 32.0112C44.0003 31.9186 43.8299 31.8723 43.641 31.8723C43.4558 31.8723 43.2854 31.9186 43.1299 32.0112C42.978 32.1038 42.8558 32.2279 42.7632 32.3834C42.6743 32.539 42.6299 32.7131 42.6299 32.9057C42.6299 33.0945 42.6743 33.2686 42.7632 33.4279C42.8558 33.5834 42.978 33.7075 43.1299 33.8001C43.2817 33.8927 43.4521 33.939 43.641 33.939ZM46.2495 34.5723V31.239H47.0328V34.5723H46.2495ZM46.6439 30.7001C46.5143 30.7001 46.4051 30.6557 46.3162 30.5668C46.2273 30.4742 46.1828 30.3649 46.1828 30.239C46.1828 30.1057 46.2273 29.9964 46.3162 29.9112C46.4088 29.8223 46.518 29.7779 46.6439 29.7779C46.7773 29.7779 46.8865 29.8223 46.9717 29.9112C47.0606 30.0001 47.1051 30.1094 47.1051 30.239C47.1051 30.3686 47.0606 30.4779 46.9717 30.5668C46.8828 30.6557 46.7736 30.7001 46.6439 30.7001ZM49.5226 34.6612C49.193 34.6612 48.893 34.5834 48.6226 34.4279C48.3522 34.2686 48.1374 34.0557 47.9781 33.789C47.8189 33.5223 47.7393 33.2279 47.7393 32.9057C47.7393 32.5797 47.8189 32.2853 47.9781 32.0223C48.1374 31.7557 48.3522 31.5445 48.6226 31.389C48.893 31.2297 49.193 31.1501 49.5226 31.1501C49.7559 31.1501 49.9763 31.1908 50.1837 31.2723C50.3948 31.3501 50.58 31.4612 50.7393 31.6057L50.5226 32.4779C50.43 32.3112 50.2985 32.1686 50.1281 32.0501C49.9578 31.9279 49.7615 31.8668 49.5393 31.8668C49.3467 31.8668 49.1707 31.9149 49.0115 32.0112C48.8559 32.1038 48.7319 32.2279 48.6393 32.3834C48.5504 32.539 48.5059 32.7131 48.5059 32.9057C48.5059 33.0945 48.5504 33.2686 48.6393 33.4279C48.7319 33.5834 48.8559 33.7094 49.0115 33.8057C49.1707 33.8983 49.3467 33.9445 49.5393 33.9445C49.7615 33.9445 49.9578 33.8853 50.1281 33.7668C50.2985 33.6483 50.43 33.5038 50.5226 33.3334L50.7393 34.2057C50.58 34.3501 50.3948 34.4631 50.1837 34.5445C49.9763 34.6223 49.7559 34.6612 49.5226 34.6612ZM52.8144 34.639C52.5107 34.639 52.2329 34.5612 51.9811 34.4057C51.7292 34.2501 51.5274 34.0408 51.3755 33.7779C51.2274 33.5149 51.1533 33.2242 51.1533 32.9057C51.1533 32.5871 51.2274 32.2964 51.3755 32.0334C51.5274 31.7705 51.7292 31.5612 51.9811 31.4057C52.2329 31.2501 52.5107 31.1723 52.8144 31.1723C53.0367 31.1723 53.2422 31.2131 53.4311 31.2945C53.6237 31.3723 53.7885 31.4834 53.9255 31.6279V31.239H54.62V34.5723H53.9255V34.1834C53.7885 34.3242 53.6237 34.4353 53.4311 34.5168C53.2422 34.5983 53.0367 34.639 52.8144 34.639ZM52.9144 33.939C53.0996 33.939 53.2681 33.8927 53.42 33.8001C53.5755 33.7075 53.6978 33.5834 53.7867 33.4279C53.8792 33.2723 53.9255 33.0983 53.9255 32.9057C53.9255 32.7168 53.8792 32.5445 53.7867 32.389C53.6978 32.2297 53.5774 32.1038 53.4255 32.0112C53.2737 31.9186 53.1033 31.8723 52.9144 31.8723C52.7292 31.8723 52.5589 31.9186 52.4033 32.0112C52.2515 32.1038 52.1292 32.2279 52.0367 32.3834C51.9478 32.539 51.9033 32.7131 51.9033 32.9057C51.9033 33.0945 51.9478 33.2686 52.0367 33.4279C52.1292 33.5834 52.2515 33.7075 52.4033 33.8001C52.5552 33.8927 52.7255 33.939 52.9144 33.939ZM55.5229 34.5723V29.239H56.3063V34.5723H55.5229ZM59.0434 34.5723V29.5723H60.7101C61.136 29.5723 61.5138 29.6427 61.8434 29.7834C62.1768 29.9205 62.4582 30.1075 62.6879 30.3445C62.9175 30.5779 63.0916 30.8445 63.2101 31.1445C63.3286 31.4445 63.3879 31.7538 63.3879 32.0723C63.3879 32.3908 63.3286 32.7001 63.2101 33.0001C63.0916 33.3001 62.9175 33.5686 62.6879 33.8057C62.4582 34.039 62.1768 34.226 61.8434 34.3668C61.5138 34.5038 61.136 34.5723 60.7101 34.5723H59.0434ZM59.8434 33.839H60.6323C60.9656 33.839 61.2508 33.789 61.4879 33.689C61.7286 33.5853 61.9268 33.4483 62.0823 33.2779C62.2379 33.1075 62.3527 32.9186 62.4268 32.7112C62.5008 32.5001 62.5379 32.2871 62.5379 32.0723C62.5379 31.8575 62.5008 31.6464 62.4268 31.439C62.3527 31.2279 62.2379 31.0371 62.0823 30.8668C61.9268 30.6964 61.7286 30.5612 61.4879 30.4612C61.2508 30.3575 60.9656 30.3057 60.6323 30.3057H59.8434V33.839ZM64.1636 34.5723V31.239H64.9469V34.5723H64.1636ZM64.558 30.7001C64.4284 30.7001 64.3191 30.6557 64.2302 30.5668C64.1413 30.4742 64.0969 30.3649 64.0969 30.239C64.0969 30.1057 64.1413 29.9964 64.2302 29.9112C64.3228 29.8223 64.4321 29.7779 64.558 29.7779C64.6913 29.7779 64.8006 29.8223 64.8858 29.9112C64.9747 30.0001 65.0191 30.1094 65.0191 30.239C65.0191 30.3686 64.9747 30.4779 64.8858 30.5668C64.7969 30.6557 64.6876 30.7001 64.558 30.7001ZM67.4367 34.6612C67.107 34.6612 66.807 34.5834 66.5367 34.4279C66.2663 34.2686 66.0515 34.0557 65.8922 33.789C65.7329 33.5223 65.6533 33.2279 65.6533 32.9057C65.6533 32.5797 65.7329 32.2853 65.8922 32.0223C66.0515 31.7557 66.2663 31.5445 66.5367 31.389C66.807 31.2297 67.107 31.1501 67.4367 31.1501C67.67 31.1501 67.8904 31.1908 68.0978 31.2723C68.3089 31.3501 68.4941 31.4612 68.6533 31.6057L68.4367 32.4779C68.3441 32.3112 68.2126 32.1686 68.0422 32.0501C67.8718 31.9279 67.6755 31.8668 67.4533 31.8668C67.2607 31.8668 67.0848 31.9149 66.9255 32.0112C66.77 32.1038 66.6459 32.2279 66.5533 32.3834C66.4644 32.539 66.42 32.7131 66.42 32.9057C66.42 33.0945 66.4644 33.2686 66.5533 33.4279C66.6459 33.5834 66.77 33.7094 66.9255 33.8057C67.0848 33.8983 67.2607 33.9445 67.4533 33.9445C67.6755 33.9445 67.8718 33.8853 68.0422 33.7668C68.2126 33.6483 68.3441 33.5038 68.4367 33.3334L68.6533 34.2057C68.4941 34.3501 68.3089 34.4631 68.0978 34.5445C67.8904 34.6223 67.67 34.6612 67.4367 34.6612ZM69.6563 34.5723V31.8723H68.9674V31.239H69.6729V30.1279H70.4229V31.239H71.1674V31.8723H70.4396V34.5723H69.6563ZM73.0644 34.639C72.7607 34.639 72.4829 34.5612 72.2311 34.4057C71.9792 34.2501 71.7774 34.0408 71.6255 33.7779C71.4774 33.5149 71.4033 33.2242 71.4033 32.9057C71.4033 32.5871 71.4774 32.2964 71.6255 32.0334C71.7774 31.7705 71.9792 31.5612 72.2311 31.4057C72.4829 31.2501 72.7607 31.1723 73.0644 31.1723C73.2867 31.1723 73.4922 31.2131 73.6811 31.2945C73.8737 31.3723 74.0385 31.4834 74.1755 31.6279V31.239H74.87V34.5723H74.1755V34.1834C74.0385 34.3242 73.8737 34.4353 73.6811 34.5168C73.4922 34.5983 73.2867 34.639 73.0644 34.639ZM73.1644 33.939C73.3496 33.939 73.5181 33.8927 73.67 33.8001C73.8255 33.7075 73.9478 33.5834 74.0367 33.4279C74.1292 33.2723 74.1755 33.0983 74.1755 32.9057C74.1755 32.7168 74.1292 32.5445 74.0367 32.389C73.9478 32.2297 73.8274 32.1038 73.6755 32.0112C73.5237 31.9186 73.3533 31.8723 73.1644 31.8723C72.9792 31.8723 72.8089 31.9186 72.6533 32.0112C72.5015 32.1038 72.3792 32.2279 72.2867 32.3834C72.1978 32.539 72.1533 32.7131 72.1533 32.9057C72.1533 33.0945 72.1978 33.2686 72.2867 33.4279C72.3792 33.5834 72.5015 33.7075 72.6533 33.8001C72.8052 33.8927 72.9755 33.939 73.1644 33.939ZM76.1563 34.5723V31.8723H75.4674V31.239H76.1729V30.1279H76.9229V31.239H77.6674V31.8723H76.9396V34.5723H76.1563ZM78.2729 34.5723V31.239H79.0563V34.5723H78.2729ZM78.6674 30.7001C78.5378 30.7001 78.4285 30.6557 78.3396 30.5668C78.2507 30.4742 78.2063 30.3649 78.2063 30.239C78.2063 30.1057 78.2507 29.9964 78.3396 29.9112C78.4322 29.8223 78.5415 29.7779 78.6674 29.7779C78.8007 29.7779 78.91 29.8223 78.9952 29.9112C79.084 30.0001 79.1285 30.1094 79.1285 30.239C79.1285 30.3686 79.084 30.4779 78.9952 30.5668C78.9063 30.6557 78.797 30.7001 78.6674 30.7001ZM81.5405 34.6612C81.2145 34.6612 80.9164 34.5834 80.646 34.4279C80.3757 34.2686 80.1608 34.0557 80.0016 33.789C79.8423 33.5223 79.7627 33.2279 79.7627 32.9057C79.7627 32.5797 79.8423 32.2853 80.0016 32.0223C80.1608 31.7557 80.3757 31.5445 80.646 31.389C80.9164 31.2297 81.2145 31.1501 81.5405 31.1501C81.8701 31.1501 82.1683 31.2297 82.4349 31.389C82.7053 31.5445 82.9201 31.7557 83.0794 32.0223C83.2386 32.2853 83.3183 32.5797 83.3183 32.9057C83.3183 33.2279 83.2386 33.5223 83.0794 33.789C82.9201 34.0557 82.7053 34.2686 82.4349 34.4279C82.1683 34.5834 81.8701 34.6612 81.5405 34.6612ZM81.5405 33.9445C81.7294 33.9445 81.9016 33.8983 82.0571 33.8057C82.2127 33.7094 82.3349 33.5834 82.4238 33.4279C82.5164 33.2723 82.5627 33.0983 82.5627 32.9057C82.5627 32.7131 82.5164 32.539 82.4238 32.3834C82.3349 32.2279 82.2127 32.1038 82.0571 32.0112C81.9016 31.9149 81.7294 31.8668 81.5405 31.8668C81.3516 31.8668 81.1794 31.9149 81.0238 32.0112C80.8683 32.1038 80.7442 32.2279 80.6516 32.3834C80.5627 32.539 80.5183 32.7131 80.5183 32.9057C80.5183 33.0983 80.5627 33.2723 80.6516 33.4279C80.7442 33.5834 80.8664 33.7094 81.0183 33.8057C81.1738 33.8983 81.3479 33.9445 81.5405 33.9445ZM84.0174 34.5723V31.239H84.7285V31.689C84.8507 31.5149 85.0026 31.3816 85.184 31.289C85.3692 31.1964 85.5692 31.1501 85.784 31.1501C86.0211 31.1501 86.2415 31.2075 86.4452 31.3223C86.6489 31.4371 86.8137 31.6038 86.9396 31.8223C87.0655 32.0408 87.1285 32.3057 87.1285 32.6168V34.5723H86.3452V32.7223C86.3452 32.5001 86.2766 32.302 86.1396 32.1279C86.0063 31.9538 85.8174 31.8668 85.5729 31.8668C85.3729 31.8668 85.1933 31.9371 85.034 32.0779C84.8785 32.2186 84.8007 32.4279 84.8007 32.7057V34.5723H84.0174Z" fill="black"/>
<defs>
<linearGradient id="paint0_linear_316_1175" x1="24.0709" y1="9.06835" x2="3.53711" y2="9.06835" gradientUnits="userSpaceOnUse">
<stop stop-color="#395C29"/>
<stop offset="0.401847" stop-color="#78C257"/>
</linearGradient>
<linearGradient id="paint1_linear_316_1175" x1="20.0612" y1="3.96403" x2="8.04395" y2="3.96403" gradientUnits="userSpaceOnUse">
<stop stop-color="#395C29"/>
<stop offset="0.351022" stop-color="#78C257"/>
</linearGradient>
<linearGradient id="paint2_linear_316_1175" x1="12.5667" y1="25.4189" x2="12.5857" y2="40.9735" gradientUnits="userSpaceOnUse">
<stop stop-color="#78C257"/>
<stop offset="1" stop-color="#395C29"/>
</linearGradient>
<linearGradient id="paint3_linear_316_1175" x1="13.6765" y1="25.9226" x2="4.53486" y2="40.3156" gradientUnits="userSpaceOnUse">
<stop stop-color="#78C257"/>
<stop offset="1" stop-color="#395C29"/>
</linearGradient>
</defs>
</svg>
