<svg width="48" height="48" viewBox="0 0 48 48" fill="none" xmlns="http://www.w3.org/2000/svg">
<path d="M24 31C28.42 31 32 27.42 32 23V12C32 7.58 28.42 4 24 4C19.58 4 16 7.58 16 12V23C16 27.42 19.58 31 24 31Z" stroke="#292D32" stroke-width="2.56" stroke-linecap="round" stroke-linejoin="round"/>
<path d="M8.69922 19.3V22.7C8.69922 31.14 15.5592 38 23.9992 38C32.4392 38 39.2992 31.14 39.2992 22.7V19.3" stroke="#292D32" stroke-width="2.56" stroke-linecap="round" stroke-linejoin="round"/>
<path d="M21.2207 12.86C23.0207 12.2 24.9807 12.2 26.7807 12.86" stroke="#292D32" stroke-width="2.56" stroke-linecap="round" stroke-linejoin="round"/>
<path d="M22.4004 17.1C23.4604 16.82 24.5604 16.82 25.6204 17.1" stroke="#292D32" stroke-width="2.56" stroke-linecap="round" stroke-linejoin="round"/>
<path d="M24 38V44" stroke="#292D32" stroke-width="2.56" stroke-linecap="round" stroke-linejoin="round"/>
</svg>
