<svg width="16" height="18" viewBox="0 0 16 18" fill="none" xmlns="http://www.w3.org/2000/svg">
<path fill-rule="evenodd" clip-rule="evenodd" d="M2.72656 0.484619C2.36587 0.484619 2.01123 0.576556 1.69608 0.751633C1.37517 0.915218 1.1043 1.16249 0.912197 1.46741C0.717333 1.77672 0.610972 2.13352 0.604673 2.49903L0.604583 2.49903V2.50954V15.5097H0.604492L0.604673 15.5202C0.610972 15.8857 0.717333 16.2425 0.912197 16.5518C1.1043 16.8567 1.37516 17.104 1.69607 17.2676C2.01122 17.4427 2.36587 17.5346 2.72656 17.5346C3.09236 17.5346 3.45195 17.4401 3.77043 17.2601C3.77744 17.2561 3.78437 17.252 3.79122 17.2478L14.3154 10.7386C14.6346 10.5778 14.904 10.3327 15.0944 10.0297C15.291 9.7168 15.3953 9.35476 15.3953 8.98523C15.3953 8.61569 15.291 8.25366 15.0944 7.94075C14.9038 7.6374 14.634 7.39216 14.3144 7.23133L3.78948 0.770355C3.7832 0.7665 3.77685 0.76276 3.77043 0.759136C3.45195 0.579184 3.09236 0.484619 2.72656 0.484619Z" fill="black"/>
</svg>
