<svg width="50" height="48" viewBox="0 0 50 48" fill="none" xmlns="http://www.w3.org/2000/svg">
<path fill-rule="evenodd" clip-rule="evenodd" d="M29.713 3.13621C27.7097 -0.647712 22.2892 -0.647685 20.2859 3.13621L0.715 40.1035C-1.16548 43.6555 1.40948 47.9322 5.42854 47.9322H44.5704C48.5894 47.9322 51.1644 43.6555 49.2839 40.1035L29.713 3.13621ZM24.9994 15.9322C23.5266 15.9322 22.3327 17.1261 22.3327 18.5989V29.2656C22.3327 30.7383 23.5266 31.9322 24.9994 31.9322C26.4721 31.9322 27.666 30.7383 27.666 29.2656V18.5989C27.666 17.1261 26.4721 15.9322 24.9994 15.9322ZM24.9994 39.9322C26.4721 39.9322 27.666 38.7383 27.666 37.2656C27.666 35.7928 26.4721 34.5989 24.9994 34.5989C23.5266 34.5989 22.3327 35.7928 22.3327 37.2656C22.3327 38.7383 23.5266 39.9322 24.9994 39.9322Z" fill="#FF4E3E"/>
</svg>
