<svg width="20" height="20" viewBox="0 0 20 20" fill="none" xmlns="http://www.w3.org/2000/svg">
<path d="M10.0042 18.3334C14.6066 18.3334 18.3376 14.6024 18.3376 10C18.3376 5.39765 14.6066 1.66669 10.0042 1.66669C5.40186 1.66669 1.6709 5.39765 1.6709 10C1.6709 14.6024 5.40186 18.3334 10.0042 18.3334Z" stroke="white" stroke-width="1.25" stroke-linecap="round" stroke-linejoin="round"/>
<path d="M6.67057 2.5H7.50391C5.87891 7.36667 5.87891 12.6333 7.50391 17.5H6.67057" stroke="white" stroke-width="1.25" stroke-linecap="round" stroke-linejoin="round"/>
<path d="M12.5039 2.5C14.1289 7.36667 14.1289 12.6333 12.5039 17.5" stroke="white" stroke-width="1.25" stroke-linecap="round" stroke-linejoin="round"/>
<path d="M2.50391 13.3333V12.5C7.37057 14.125 12.6372 14.125 17.5039 12.5V13.3333" stroke="white" stroke-width="1.25" stroke-linecap="round" stroke-linejoin="round"/>
<path d="M2.50391 7.5C7.37057 5.875 12.6372 5.875 17.5039 7.5" stroke="white" stroke-width="1.25" stroke-linecap="round" stroke-linejoin="round"/>
</svg>
